<?xml version="1.0" encoding="UTF-8" standalone="no"?>
<svg
   xmlns:dc="http://purl.org/dc/elements/1.1/"
   xmlns:cc="http://creativecommons.org/ns#"
   xmlns:rdf="http://www.w3.org/1999/02/22-rdf-syntax-ns#"
   xmlns:svg="http://www.w3.org/2000/svg"
   xmlns="http://www.w3.org/2000/svg"
   xml:space="preserve"
   height="128"
   width="128"
   version="1.1"
   id="svg2"><metadata
     id="metadata8"><rdf:RDF><cc:Work
         rdf:about=""><dc:format>image/svg+xml</dc:format><dc:type
           rdf:resource="http://purl.org/dc/dcmitype/StillImage" /><dc:title></dc:title></cc:Work></rdf:RDF></metadata><defs
     id="defs6"><clipPath
       id="clipPath16"
       clipPathUnits="userSpaceOnUse"><path
         id="path18"
         d="M 0,560 960,560 960,0 0,0 0,560 Z" /></clipPath><clipPath
       id="clipPath64"
       clipPathUnits="userSpaceOnUse"><path
         id="path66"
         d="M 0,560 960,560 960,0 0,0 0,560 Z" /></clipPath><clipPath
       id="clipPath76"
       clipPathUnits="userSpaceOnUse"><path
         id="path78"
         d="M 0,560 960,560 960,0 0,0 0,560 Z" /></clipPath></defs><g
     transform="matrix(1.25,0,0,-1.25,0,128)"
     id="g10"><g
       transform="matrix(0.20871186,0,0,0.20871186,-57.045959,-39.694355)"
       id="g3966"><g
         id="g3863"><g
           style="fill:#554d7c;fill-opacity:1"
           transform="matrix(2.1377005,0,0,2.1377005,636.11909,487.50087)"
           id="g80"><path
             id="path82"
             style="fill:#554d7c;fill-opacity:1;fill-rule:evenodd;stroke:none"
             d="m 0,0 c -36.98,7.243 -73.237,7.232 -109.829,0.033 -1.239,10.916 -2.503,21.762 -3.693,32.617 -1.276,11.623 -2.275,23.281 -3.809,34.87 -0.684,5.169 1.297,8.568 5.777,9.9 9.336,2.774 18.732,5.883 28.328,7.148 23.464,3.092 46.997,2.729 70.234,-2.327 C -7.486,81.043 -2.162,78.824 3.075,76.66 6.458,75.262 7.883,72.501 7.431,68.507 4.848,45.73 2.466,22.93 0,0" /></g><g
           style="fill:#563d7c;fill-opacity:1"
           transform="matrix(2.1377005,0,0,2.1377005,553.1746,443.56108)"
           id="g84"><path
             id="path86"
             style="fill:#554d7c;fill-opacity:1;fill-rule:evenodd;stroke:none"
             d="m 0,0 c 20.068,-0.324 48.773,-2.19 76.975,-8.58 5.736,-1.3 11.313,-3.713 16.655,-6.261 5.574,-2.659 5.727,-5.936 0.299,-8.535 -5.838,-2.795 -12.154,-4.61 -18.288,-6.769 -1.482,-0.521 -3.115,-0.601 -4.614,-1.084 -3.14,-1.011 -5.521,-0.343 -8.75,1.089 -7.471,3.314 -15.512,5.98 -23.58,7.169 -13.62,2.008 -27.419,3.281 -41.179,3.723 -13.768,0.443 -27.622,0.037 -41.362,-1.008 -13.252,-1.009 -26.447,-3.054 -39.578,-5.195 -4.015,-0.654 -7.697,-3.218 -11.599,-4.735 -1.887,-0.733 -4.16,-1.903 -5.865,-1.437 -8.248,2.253 -16.429,4.805 -24.471,7.703 -1.894,0.682 -4.36,3.098 -4.377,4.738 -0.016,1.611 2.474,4.164 4.34,4.727 11.122,3.354 22.228,7.115 33.624,9.13 C -64.346,-0.478 -36.568,0.387 0,0" /></g><g
           style="fill:#563d7c;fill-opacity:1"
           transform="matrix(2.1377005,0,0,2.1377005,426.19434,295.29167)"
           id="g88"><path
             id="path90"
             style="fill:#554d7c;fill-opacity:1;fill-rule:evenodd;stroke:none"
             d="m 0,0 c 6.396,-0.048 11.998,1.6 16.493,4.848 9.842,7.113 10.373,18.598 0.973,26.268 -9.317,7.6 -24.163,7.671 -34.166,0.122 C -26.224,24.05 -25.837,12.543 -16.323,5.263 -11.531,1.596 -6.052,-0.141 0,0 M 85.842,37.281 C 81.669,36.201 77.266,35.65 73.367,33.943 61.396,28.695 58.71,15.326 67.623,6.802 c 9.607,-9.188 27.745,-9.117 37.217,0.141 6.844,6.695 6.952,15.725 0.264,22.554 -5.242,5.353 -11.693,7.422 -19.262,7.784 M 30.3,24.791 c 8.463,6.695 17.142,6.858 25.971,-0.114 0.363,0.436 0.839,0.791 1.027,1.262 5.275,13.331 21.39,19.023 34.113,16.858 6.399,-1.089 12.25,-3.369 17.257,-7.769 11.488,-10.094 10.855,-28.966 -6.46,-37.624 -11.679,-5.84 -23.479,-5.383 -34.698,1.481 -6.1,3.732 -10.017,9.129 -11.384,16.404 -0.377,2.01 -1.981,4.244 -3.679,5.468 C 46.616,24.956 38.423,24.523 32.886,19.95 31.762,19.024 30.734,17.478 30.487,16.073 28.432,4.421 20.863,-1.894 10.149,-5.028 c -9.891,-2.897 -19.422,-1.656 -28.23,3.725 -16.08,9.826 -15.6,30.588 0.904,39.84 13.721,7.691 30.55,5.923 41.062,-4.791 2.485,-2.534 4.204,-5.817 6.415,-8.955" /></g><g
           style="fill:#554d7c;fill-opacity:1"
           transform="matrix(2.1377005,0,0,2.1377005,405.09908,449.86879)"
           id="g92"><path
             id="path94"
             style="fill:#554d7c;fill-opacity:1;fill-rule:evenodd;stroke:none"
             d="m 0,0 c -0.452,3.587 -0.832,6.59 -1.323,10.475 36.386,7.482 72.405,7.323 108.379,0.179 0.146,-1.393 0.272,-1.829 0.222,-2.244 C 106.965,5.818 106.614,3.23 106.2,0.063 70.885,3.143 35.645,3.268 0,0" /></g><g
           transform="matrix(2.1377005,0,0,2.1377005,375.35512,235.60921)"
           id="g96"><path
             id="path98"
             style="fill:#666666;fill-opacity:1;fill-rule:evenodd;stroke:none"
             d="m 0,0 c 7.969,-10.034 23.444,-9.899 32.125,-0.376 5.037,5.528 10.615,10.112 18.237,11.168 2.656,0.367 5.599,0.181 8.158,-0.596 5.981,-1.815 8.187,-7.528 4.917,-12.866 -1.55,-2.528 -3.73,-5.08 -6.25,-6.543 C 41.821,-18.117 25.817,-19.432 9.502,-11.943 4.933,-9.848 1.199,-6.591 0,0" /></g><g
           transform="matrix(2.1377005,0,0,2.1377005,661.31424,236.64471)"
           id="g100"><path
             id="path102"
             style="fill:#666666;fill-opacity:1;fill-rule:evenodd;stroke:none"
             d="m 0,0 c -0.237,-5.446 -2.763,-8.159 -5.913,-10.361 -9.268,-6.477 -19.766,-7.728 -30.566,-6.255 -5.418,0.739 -10.756,2.52 -15.939,4.371 -2.66,0.949 -5.083,2.867 -7.285,4.734 -4.485,3.803 -5.984,8.55 -4.276,12.319 1.829,4.04 7.134,6.458 12.706,5.765 7.823,-0.977 13.818,-5.136 18.879,-10.9 5.232,-5.959 12.135,-7.923 19.682,-7.749 C -7.551,-7.954 -3.001,-6.078 0,0" /></g><g
           style="fill:#563d7c;fill-opacity:1"
           transform="matrix(2.1377005,0,0,2.1377005,612.19523,362.29725)"
           id="g104"><path
             id="path106"
             style="fill:#563d7c;fill-opacity:1;fill-rule:evenodd;stroke:none"
             d="m 0,0 c -6.67,-1.417 -12.906,-3.25 -17.151,-9.328 -0.457,0.519 -0.914,1.04 -1.371,1.559 1.494,1.695 2.733,3.753 4.532,5.013 C -9.827,0.165 -5.148,1.453 0,0" /></g><g
           style="fill:#563d7c;fill-opacity:1"
           transform="matrix(2.1377005,0,0,2.1377005,430.25896,360.95905)"
           id="g108"><path
             id="path110"
             style="fill:#563d7c;fill-opacity:1;fill-rule:evenodd;stroke:none"
             d="m 0,0 c -7.059,-1.066 -13.617,-2.32 -18.091,-9.15 -1.571,4.006 1.063,5.177 2.646,6.497 C -10.895,1.144 -3.491,2.591 0,0" /></g></g></g></g></svg>