<svg version="1.1" viewBox="0.0 0.0 960.0 720.0" fill="none" stroke="none" stroke-linecap="square" stroke-miterlimit="10" xmlns:xlink="http://www.w3.org/1999/xlink" xmlns="http://www.w3.org/2000/svg"><clipPath id="p.0"><path d="m0 0l960.0 0l0 720.0l-960.0 0l0 -720.0z" clip-rule="nonzero"/></clipPath><g clip-path="url(#p.0)"><path fill="#f3f3f3" d="m0 0l960.0 0l0 720.0l-960.0 0z" fill-rule="evenodd"/><path fill="#ffd966" d="m345.76642 54.44882l552.7874 0l0 406.2992l-552.7874 0z" fill-rule="evenodd"/><path fill="#ffd966" d="m54.17323 279.70865l291.59058 0l0 181.03937l-291.59058 0z" fill-rule="evenodd"/><path fill="#cfe2f3" d="m382.22046 122.21814l0 0c0 -8.027863 6.5078735 -14.535728 14.535736 -14.535728l166.48758 0c3.8551636 0 7.552368 1.5314407 10.27832 4.257416c2.7260132 2.7259827 4.2574463 6.423195 4.2574463 10.278313l0 58.141144c0 8.027863 -6.5078735 14.535736 -14.535767 14.535736l-166.48758 0c-8.027863 0 -14.535736 -6.5078735 -14.535736 -14.535736z" fill-rule="evenodd"/><path stroke="#000000" stroke-width="1.0" stroke-linejoin="round" stroke-linecap="butt" d="m382.22046 122.21814l0 0c0 -8.027863 6.5078735 -14.535728 14.535736 -14.535728l166.48758 0c3.8551636 0 7.552368 1.5314407 10.27832 4.257416c2.7260132 2.7259827 4.2574463 6.423195 4.2574463 10.278313l0 58.141144c0 8.027863 -6.5078735 14.535736 -14.535767 14.535736l-166.48758 0c-8.027863 0 -14.535736 -6.5078735 -14.535736 -14.535736z" fill-rule="evenodd"/><path fill="#000000" d="m449.31677 158.20871l0 -13.359375l5.921875 0q1.78125 0 2.703125 0.359375q0.9375 0.359375 1.484375 1.28125q0.5625 0.90625 0.5625 2.015625q0 1.40625 -0.921875 2.390625q-0.921875 0.96875 -2.84375 1.234375q0.703125 0.34375 1.078125 0.671875q0.765625 0.703125 1.453125 1.765625l2.328125 3.640625l-2.21875 0l-1.765625 -2.78125q-0.78125 -1.203125 -1.28125 -1.828125q-0.5 -0.640625 -0.90625 -0.890625q-0.390625 -0.265625 -0.796875 -0.359375q-0.296875 -0.078125 -0.984375 -0.078125l-2.046875 0l0 5.9375l-1.765625 0zm1.765625 -7.453125l3.796875 0q1.21875 0 1.890625 -0.25q0.6875 -0.265625 1.046875 -0.8125q0.359375 -0.546875 0.359375 -1.1875q0 -0.953125 -0.6875 -1.5625q-0.6875 -0.609375 -2.1875 -0.609375l-4.21875 0l0 4.421875zm10.863586 2.609375q0 -2.6875 1.484375 -3.96875q1.25 -1.078125 3.046875 -1.078125q2.0 0 3.265625 1.3125q1.265625 1.296875 1.265625 3.609375q0 1.859375 -0.5625 2.9375q-0.5625 1.0625 -1.640625 1.65625q-1.0625 0.59375 -2.328125 0.59375q-2.03125 0 -3.28125 -1.296875q-1.25 -1.3125 -1.25 -3.765625zm1.6875 0q0 1.859375 0.796875 2.796875q0.8125 0.921875 2.046875 0.921875q1.21875 0 2.03125 -0.921875q0.8125 -0.9375 0.8125 -2.84375q0 -1.796875 -0.8125 -2.71875q-0.8125 -0.921875 -2.03125 -0.921875q-1.234375 0 -2.046875 0.921875q-0.796875 0.90625 -0.796875 2.765625zm15.625702 4.84375l0 -1.421875q-1.125 1.640625 -3.0625 1.640625q-0.859375 0 -1.609375 -0.328125q-0.734375 -0.328125 -1.09375 -0.828125q-0.359375 -0.5 -0.5 -1.21875q-0.109375 -0.46875 -0.109375 -1.53125l0 -5.984375l1.640625 0l0 5.359375q0 1.28125 0.109375 1.734375q0.15625 0.640625 0.65625 1.015625q0.5 0.375 1.234375 0.375q0.734375 0 1.375 -0.375q0.65625 -0.390625 0.921875 -1.03125q0.265625 -0.65625 0.265625 -1.890625l0 -5.1875l1.640625 0l0 9.671875l-1.46875 0zm7.6257324 -1.46875l0.234375 1.453125q-0.6875 0.140625 -1.234375 0.140625q-0.890625 0 -1.390625 -0.28125q-0.484375 -0.28125 -0.6875 -0.734375q-0.203125 -0.46875 -0.203125 -1.9375l0 -5.578125l-1.203125 0l0 -1.265625l1.203125 0l0 -2.390625l1.625 -0.984375l0 3.375l1.65625 0l0 1.265625l-1.65625 0l0 5.671875q0 0.6875 0.078125 0.890625q0.09375 0.203125 0.28125 0.328125q0.203125 0.109375 0.578125 0.109375q0.265625 0 0.71875 -0.0625zm1.6051636 -10.0l0 -1.890625l1.640625 0l0 1.890625l-1.640625 0zm0 11.46875l0 -9.671875l1.640625 0l0 9.671875l-1.640625 0zm4.1448364 0l0 -9.671875l1.46875 0l0 1.375q1.0625 -1.59375 3.078125 -1.59375q0.875 0 1.609375 0.3125q0.734375 0.3125 1.09375 0.828125q0.375 0.5 0.515625 1.203125q0.09375 0.453125 0.09375 1.59375l0 5.953125l-1.640625 0l0 -5.890625q0 -1.0 -0.203125 -1.484375q-0.1875 -0.5 -0.671875 -0.796875q-0.484375 -0.296875 -1.140625 -0.296875q-1.046875 0 -1.8125 0.671875q-0.75 0.65625 -0.75 2.515625l0 5.28125l-1.640625 0zm10.063202 0.796875l1.59375 0.234375q0.109375 0.75 0.5625 1.078125q0.609375 0.453125 1.671875 0.453125q1.140625 0 1.75 -0.453125q0.625 -0.453125 0.84375 -1.265625q0.125 -0.5 0.109375 -2.109375q-1.0625 1.265625 -2.671875 1.265625q-2.0 0 -3.09375 -1.4375q-1.09375 -1.4375 -1.09375 -3.453125q0 -1.390625 0.5 -2.5625q0.515625 -1.171875 1.453125 -1.796875q0.953125 -0.640625 2.25 -0.640625q1.703125 0 2.8125 1.375l0 -1.15625l1.515625 0l0 8.359375q0 2.265625 -0.46875 3.203125q-0.453125 0.9375 -1.453125 1.484375q-0.984375 0.546875 -2.453125 0.546875q-1.71875 0 -2.796875 -0.78125q-1.0625 -0.765625 -1.03125 -2.34375zm1.359375 -5.8125q0 1.90625 0.75 2.78125q0.765625 0.875 1.90625 0.875q1.125 0 1.890625 -0.859375q0.765625 -0.875 0.765625 -2.734375q0 -1.78125 -0.796875 -2.671875q-0.78125 -0.90625 -1.890625 -0.90625q-1.09375 0 -1.859375 0.890625q-0.765625 0.875 -0.765625 2.625z" fill-rule="nonzero"/><path fill="#cfe2f3" d="m382.22046 350.17615l0 0c0 -8.027863 6.5078735 -14.535736 14.535736 -14.535736l166.48758 0c3.8551636 0 7.552368 1.5314331 10.27832 4.257416c2.7260132 2.7259827 4.2574463 6.423218 4.2574463 10.27832l0 58.141144c0 8.027863 -6.5078735 14.535736 -14.535767 14.535736l-166.48758 0c-8.027863 0 -14.535736 -6.5078735 -14.535736 -14.535736z" fill-rule="evenodd"/><path stroke="#000000" stroke-width="1.0" stroke-linejoin="round" stroke-linecap="butt" d="m382.22046 350.17615l0 0c0 -8.027863 6.5078735 -14.535736 14.535736 -14.535736l166.48758 0c3.8551636 0 7.552368 1.5314331 10.27832 4.257416c2.7260132 2.7259827 4.2574463 6.423218 4.2574463 10.27832l0 58.141144c0 8.027863 -6.5078735 14.535736 -14.535767 14.535736l-166.48758 0c-8.027863 0 -14.535736 -6.5078735 -14.535736 -14.535736z" fill-rule="evenodd"/><path fill="#000000" d="m450.53168 381.47922l1.765625 0.453125q-0.5625 2.171875 -2.0 3.328125q-1.4375 1.140625 -3.53125 1.140625q-2.15625 0 -3.515625 -0.875q-1.34375 -0.890625 -2.0625 -2.546875q-0.703125 -1.671875 -0.703125 -3.59375q0 -2.078125 0.796875 -3.625q0.796875 -1.5625 2.265625 -2.359375q1.484375 -0.8125 3.25 -0.8125q2.0 0 3.359375 1.015625q1.375 1.015625 1.90625 2.875l-1.734375 0.40625q-0.46875 -1.453125 -1.359375 -2.109375q-0.875 -0.671875 -2.203125 -0.671875q-1.546875 0 -2.578125 0.734375q-1.03125 0.734375 -1.453125 1.984375q-0.421875 1.234375 -0.421875 2.5625q0 1.703125 0.5 2.96875q0.5 1.265625 1.546875 1.90625q1.046875 0.625 2.265625 0.625q1.484375 0 2.515625 -0.859375q1.03125 -0.859375 1.390625 -2.546875zm3.1292114 -0.15625q0 -2.6875 1.484375 -3.96875q1.25 -1.078125 3.046875 -1.078125q2.0 0 3.265625 1.3125q1.265625 1.296875 1.265625 3.609375q0 1.859375 -0.5625 2.9375q-0.5625 1.0625 -1.640625 1.65625q-1.0625 0.59375 -2.328125 0.59375q-2.03125 0 -3.28125 -1.296875q-1.25 -1.3125 -1.25 -3.765625zm1.6875 0q0 1.859375 0.796875 2.796875q0.8125 0.921875 2.046875 0.921875q1.21875 0 2.03125 -0.921875q0.8125 -0.9375 0.8125 -2.84375q0 -1.796875 -0.8125 -2.71875q-0.8125 -0.921875 -2.03125 -0.921875q-1.234375 0 -2.046875 0.921875q-0.796875 0.90625 -0.796875 2.765625zm9.297577 4.84375l0 -9.671875l1.46875 0l0 1.375q1.0625 -1.59375 3.078125 -1.59375q0.875 0 1.609375 0.3125q0.734375 0.3125 1.09375 0.828125q0.375 0.5 0.515625 1.203125q0.09375 0.453125 0.09375 1.59375l0 5.953125l-1.640625 0l0 -5.890625q0 -1.0 -0.203125 -1.484375q-0.1875 -0.5 -0.671875 -0.796875q-0.484375 -0.296875 -1.140625 -0.296875q-1.046875 0 -1.8125 0.671875q-0.75 0.65625 -0.75 2.515625l0 5.28125l-1.640625 0zm13.953857 -1.46875l0.234375 1.453125q-0.6875 0.140625 -1.234375 0.140625q-0.890625 0 -1.390625 -0.28125q-0.484375 -0.28125 -0.6875 -0.734375q-0.203125 -0.46875 -0.203125 -1.9375l0 -5.578125l-1.203125 0l0 -1.265625l1.203125 0l0 -2.390625l1.625 -0.984375l0 3.375l1.65625 0l0 1.265625l-1.65625 0l0 5.671875q0 0.6875 0.078125 0.890625q0.09375 0.203125 0.28125 0.328125q0.203125 0.109375 0.578125 0.109375q0.265625 0 0.71875 -0.0625zm1.5895386 1.46875l0 -9.671875l1.46875 0l0 1.46875q0.5625 -1.03125 1.03125 -1.359375q0.484375 -0.328125 1.0625 -0.328125q0.828125 0 1.6875 0.53125l-0.5625 1.515625q-0.609375 -0.359375 -1.203125 -0.359375q-0.546875 0 -0.96875 0.328125q-0.421875 0.328125 -0.609375 0.890625q-0.28125 0.875 -0.28125 1.921875l0 5.0625l-1.625 0zm5.618927 -4.84375q0 -2.6875 1.484375 -3.96875q1.25 -1.078125 3.046875 -1.078125q2.0 0 3.265625 1.3125q1.265625 1.296875 1.265625 3.609375q0 1.859375 -0.5625 2.9375q-0.5625 1.0625 -1.640625 1.65625q-1.0625 0.59375 -2.328125 0.59375q-2.03125 0 -3.28125 -1.296875q-1.25 -1.3125 -1.25 -3.765625zm1.6875 0q0 1.859375 0.796875 2.796875q0.8125 0.921875 2.046875 0.921875q1.21875 0 2.03125 -0.921875q0.8125 -0.9375 0.8125 -2.84375q0 -1.796875 -0.8125 -2.71875q-0.8125 -0.921875 -2.03125 -0.921875q-1.234375 0 -2.046875 0.921875q-0.796875 0.90625 -0.796875 2.765625zm9.250732 4.84375l0 -13.359375l1.640625 0l0 13.359375l-1.640625 0zm4.144806 0l0 -13.359375l1.640625 0l0 13.359375l-1.640625 0zm10.816711 -3.109375l1.6874695 0.203125q-0.40625 1.484375 -1.4843445 2.3125q-1.078125 0.8125 -2.765625 0.8125q-2.125 0 -3.375 -1.296875q-1.234375 -1.3125 -1.234375 -3.671875q0 -2.453125 1.25 -3.796875q1.265625 -1.34375 3.265625 -1.34375q1.9375 0 3.1562195 1.328125q1.234375 1.3125 1.234375 3.703125q0 0.15625 0 0.4375l-7.2187195 0q0.09375 1.59375 0.90625 2.453125q0.8125 0.84375 2.015625 0.84375q0.90625 0 1.546875 -0.46875q0.640625 -0.484375 1.015625 -1.515625zm-5.390625 -2.65625l5.40625 0q-0.109375 -1.21875 -0.625 -1.828125q-0.78125 -0.953125 -2.03125 -0.953125q-1.125 0 -1.90625 0.765625q-0.765625 0.75 -0.84375 2.015625zm9.125702 5.765625l0 -9.671875l1.46875 0l0 1.46875q0.5625 -1.03125 1.03125 -1.359375q0.484375 -0.328125 1.0625 -0.328125q0.828125 0 1.6875 0.53125l-0.5625 1.515625q-0.609375 -0.359375 -1.203125 -0.359375q-0.546875 0 -0.96875 0.328125q-0.421875 0.328125 -0.609375 0.890625q-0.28125 0.875 -0.28125 1.921875l0 5.0625l-1.625 0z" fill-rule="nonzero"/><path fill="#cfe2f3" d="m100.83727 350.17615l0 0c0 -8.027863 6.507866 -14.535736 14.535721 -14.535736l166.48761 0c3.855133 0 7.5523376 1.5314331 10.27832 4.257416c2.7259827 2.7259827 4.257416 6.423218 4.257416 10.27832l0 58.141144c0 8.027863 -6.5078735 14.535736 -14.535736 14.535736l-166.48761 0c-8.027855 0 -14.535721 -6.5078735 -14.535721 -14.535736z" fill-rule="evenodd"/><path stroke="#000000" stroke-width="1.0" stroke-linejoin="round" stroke-linecap="butt" d="m100.83727 350.17615l0 0c0 -8.027863 6.507866 -14.535736 14.535721 -14.535736l166.48761 0c3.855133 0 7.5523376 1.5314331 10.27832 4.257416c2.7259827 2.7259827 4.257416 6.423218 4.257416 10.27832l0 58.141144c0 8.027863 -6.5078735 14.535736 -14.535736 14.535736l-166.48761 0c-8.027855 0 -14.535721 -6.5078735 -14.535721 -14.535736z" fill-rule="evenodd"/><path fill="#000000" d="m183.8169 386.16672l-5.171875 -13.359375l1.921875 0l3.46875 9.703125q0.421875 1.171875 0.703125 2.1875q0.3125 -1.09375 0.71875 -2.1875l3.609375 -9.703125l1.796875 0l-5.234375 13.359375l-1.8125 0zm8.090698 -11.46875l0 -1.890625l1.640625 0l0 1.890625l-1.640625 0zm0 11.46875l0 -9.671875l1.640625 0l0 9.671875l-1.640625 0zm10.769821 -3.109375l1.6875 0.203125q-0.40625 1.484375 -1.484375 2.3125q-1.078125 0.8125 -2.765625 0.8125q-2.125 0 -3.375 -1.296875q-1.234375 -1.3125 -1.234375 -3.671875q0 -2.453125 1.25 -3.796875q1.265625 -1.34375 3.265625 -1.34375q1.9375 0 3.15625 1.328125q1.234375 1.3125 1.234375 3.703125q0 0.15625 0 0.4375l-7.21875 0q0.09375 1.59375 0.90625 2.453125q0.8125 0.84375 2.015625 0.84375q0.90625 0 1.546875 -0.46875q0.640625 -0.484375 1.015625 -1.515625zm-5.390625 -2.65625l5.40625 0q-0.109375 -1.21875 -0.625 -1.828125q-0.78125 -0.953125 -2.03125 -0.953125q-1.125 0 -1.90625 0.765625q-0.765625 0.75 -0.84375 2.015625zm10.922592 5.765625l-2.96875 -9.671875l1.703125 0l1.53125 5.578125l0.578125 2.078125q0.046875 -0.15625 0.5 -2.0l1.546875 -5.65625l1.6875 0l1.4375 5.609375l0.484375 1.84375l0.5625 -1.859375l1.65625 -5.59375l1.59375 0l-3.03125 9.671875l-1.703125 0l-1.53125 -5.796875l-0.375 -1.640625l-1.953125 7.4375l-1.71875 0z" fill-rule="nonzero"/><path fill="#1155cc" d="m702.83203 540.6903l0 0c0 8.0842285 26.214233 14.637756 58.551147 14.637756c32.336975 0 58.55121 -6.553528 58.55121 -14.637756l0 104.01575c0 8.0842285 -26.214233 14.637756 -58.55121 14.637756c-32.336914 0 -58.551147 -6.553528 -58.551147 -14.637756z" fill-rule="evenodd"/><path fill="#7099e0" d="m702.83203 540.6903l0 0c0 -8.0842285 26.214233 -14.637817 58.551147 -14.637817c32.336975 0 58.55121 6.553589 58.55121 14.637817l0 0c0 8.0842285 -26.214233 14.637756 -58.55121 14.637756c-32.336914 0 -58.551147 -6.553528 -58.551147 -14.637756z" fill-rule="evenodd"/><path fill="#000000" fill-opacity="0.0" d="m819.9344 540.6903l0 0c0 8.0842285 -26.214233 14.637756 -58.55121 14.637756c-32.336914 0 -58.551147 -6.553528 -58.551147 -14.637756l0 0c0 -8.0842285 26.214233 -14.637817 58.551147 -14.637817c32.336975 0 58.55121 6.553589 58.55121 14.637817l0 104.01575c0 8.0842285 -26.214233 14.637756 -58.55121 14.637756c-32.336914 0 -58.551147 -6.553528 -58.551147 -14.637756l0 -104.01575" fill-rule="evenodd"/><path stroke="#000000" stroke-width="1.0" stroke-linejoin="round" stroke-linecap="butt" d="m819.9344 540.6903l0 0c0 8.0842285 -26.214233 14.637756 -58.55121 14.637756c-32.336914 0 -58.551147 -6.553528 -58.551147 -14.637756l0 0c0 -8.0842285 26.214233 -14.637817 58.551147 -14.637817c32.336975 0 58.55121 6.553589 58.55121 14.637817l0 104.01575c0 8.0842285 -26.214233 14.637756 -58.55121 14.637756c-32.336914 0 -58.551147 -6.553528 -58.551147 -14.637756l0 -104.01575" fill-rule="evenodd"/><path fill="#ffffff" d="m722.8892 606.9371l0 -13.359375l4.609375 0q1.546875 0 2.375 0.203125q1.140625 0.25 1.953125 0.953125q1.0625 0.890625 1.578125 2.28125q0.53125 1.390625 0.53125 3.171875q0 1.515625 -0.359375 2.703125q-0.359375 1.171875 -0.921875 1.9375q-0.546875 0.765625 -1.203125 1.21875q-0.65625 0.4375 -1.59375 0.671875q-0.9375 0.21875 -2.140625 0.21875l-4.828125 0zm1.765625 -1.578125l2.859375 0q1.3125 0 2.0625 -0.234375q0.75 -0.25 1.203125 -0.703125q0.625 -0.625 0.96875 -1.6875q0.359375 -1.0625 0.359375 -2.578125q0 -2.09375 -0.6875 -3.21875q-0.6875 -1.125 -1.671875 -1.5q-0.703125 -0.28125 -2.28125 -0.28125l-2.8125 0l0 10.203125zm17.816711 0.390625q-0.921875 0.765625 -1.765625 1.09375q-0.828125 0.3125 -1.796875 0.3125q-1.59375 0 -2.453125 -0.78125q-0.859375 -0.78125 -0.859375 -1.984375q0 -0.71875 0.328125 -1.296875q0.328125 -0.59375 0.84375 -0.9375q0.53125 -0.359375 1.1875 -0.546875q0.46875 -0.125 1.453125 -0.25q1.984375 -0.234375 2.921875 -0.5625q0.015625 -0.34375 0.015625 -0.421875q0 -1.0 -0.46875 -1.421875q-0.625 -0.546875 -1.875 -0.546875q-1.15625 0 -1.703125 0.40625q-0.546875 0.40625 -0.8125 1.421875l-1.609375 -0.21875q0.21875 -1.015625 0.71875 -1.640625q0.5 -0.640625 1.453125 -0.984375q0.953125 -0.34375 2.1875 -0.34375q1.25 0 2.015625 0.296875q0.78125 0.28125 1.140625 0.734375q0.375 0.4375 0.515625 1.109375q0.078125 0.421875 0.078125 1.515625l0 2.1875q0 2.28125 0.109375 2.890625q0.109375 0.59375 0.40625 1.15625l-1.703125 0q-0.265625 -0.515625 -0.328125 -1.1875zm-0.140625 -3.671875q-0.890625 0.375 -2.671875 0.625q-1.015625 0.140625 -1.4375 0.328125q-0.421875 0.1875 -0.65625 0.53125q-0.21875 0.34375 -0.21875 0.78125q0 0.65625 0.5 1.09375q0.5 0.4375 1.453125 0.4375q0.9375 0 1.671875 -0.40625q0.75 -0.421875 1.09375 -1.140625q0.265625 -0.5625 0.265625 -1.640625l0 -0.609375zm7.7819824 3.390625l0.234375 1.453125q-0.6875 0.140625 -1.234375 0.140625q-0.890625 0 -1.390625 -0.28125q-0.484375 -0.28125 -0.6875 -0.734375q-0.203125 -0.46875 -0.203125 -1.9375l0 -5.578125l-1.203125 0l0 -1.265625l1.203125 0l0 -2.390625l1.625 -0.984375l0 3.375l1.65625 0l0 1.265625l-1.65625 0l0 5.671875q0 0.6875 0.078125 0.890625q0.09375 0.203125 0.28125 0.328125q0.203125 0.109375 0.578125 0.109375q0.265625 0 0.71875 -0.0625zm7.9176636 0.28125q-0.921875 0.765625 -1.765625 1.09375q-0.828125 0.3125 -1.796875 0.3125q-1.59375 0 -2.453125 -0.78125q-0.859375 -0.78125 -0.859375 -1.984375q0 -0.71875 0.328125 -1.296875q0.328125 -0.59375 0.84375 -0.9375q0.53125 -0.359375 1.1875 -0.546875q0.46875 -0.125 1.453125 -0.25q1.984375 -0.234375 2.921875 -0.5625q0.015625 -0.34375 0.015625 -0.421875q0 -1.0 -0.46875 -1.421875q-0.625 -0.546875 -1.875 -0.546875q-1.15625 0 -1.703125 0.40625q-0.546875 0.40625 -0.8125 1.421875l-1.609375 -0.21875q0.21875 -1.015625 0.71875 -1.640625q0.5 -0.640625 1.453125 -0.984375q0.953125 -0.34375 2.1875 -0.34375q1.25 0 2.015625 0.296875q0.78125 0.28125 1.140625 0.734375q0.375 0.4375 0.515625 1.109375q0.078125 0.421875 0.078125 1.515625l0 2.1875q0 2.28125 0.109375 2.890625q0.109375 0.59375 0.40625 1.15625l-1.703125 0q-0.265625 -0.515625 -0.328125 -1.1875zm-0.140625 -3.671875q-0.890625 0.375 -2.671875 0.625q-1.015625 0.140625 -1.4375 0.328125q-0.421875 0.1875 -0.65625 0.53125q-0.21875 0.34375 -0.21875 0.78125q0 0.65625 0.5 1.09375q0.5 0.4375 1.453125 0.4375q0.9375 0 1.671875 -0.40625q0.75 -0.421875 1.09375 -1.140625q0.265625 -0.5625 0.265625 -1.640625l0 -0.609375zm5.7038574 4.859375l-1.515625 0l0 -13.359375l1.640625 0l0 4.765625q1.046875 -1.296875 2.65625 -1.296875q0.890625 0 1.6875 0.359375q0.796875 0.359375 1.3125 1.015625q0.515625 0.640625 0.796875 1.5625q0.296875 0.921875 0.296875 1.96875q0 2.484375 -1.234375 3.84375q-1.21875 1.359375 -2.953125 1.359375q-1.703125 0 -2.6875 -1.4375l0 1.21875zm-0.015625 -4.90625q0 1.734375 0.484375 2.515625q0.765625 1.265625 2.09375 1.265625q1.078125 0 1.859375 -0.9375q0.78125 -0.9375 0.78125 -2.78125q0 -1.890625 -0.75 -2.796875q-0.75 -0.90625 -1.828125 -0.90625q-1.0625 0 -1.859375 0.9375q-0.78125 0.9375 -0.78125 2.703125zm15.203796 3.71875q-0.921875 0.765625 -1.765625 1.09375q-0.828125 0.3125 -1.796875 0.3125q-1.59375 0 -2.453125 -0.78125q-0.859375 -0.78125 -0.859375 -1.984375q0 -0.71875 0.328125 -1.296875q0.328125 -0.59375 0.84375 -0.9375q0.53125 -0.359375 1.1875 -0.546875q0.46875 -0.125 1.453125 -0.25q1.984375 -0.234375 2.921875 -0.5625q0.015625 -0.34375 0.015625 -0.421875q0 -1.0 -0.46875 -1.421875q-0.625 -0.546875 -1.875 -0.546875q-1.15625 0 -1.703125 0.40625q-0.546875 0.40625 -0.8125 1.421875l-1.609375 -0.21875q0.21875 -1.015625 0.71875 -1.640625q0.5 -0.640625 1.453125 -0.984375q0.953125 -0.34375 2.1875 -0.34375q1.25 0 2.015625 0.296875q0.78125 0.28125 1.140625 0.734375q0.375 0.4375 0.515625 1.109375q0.078125 0.421875 0.078125 1.515625l0 2.1875q0 2.28125 0.109375 2.890625q0.109375 0.59375 0.40625 1.15625l-1.703125 0q-0.265625 -0.515625 -0.328125 -1.1875zm-0.140625 -3.671875q-0.890625 0.375 -2.671875 0.625q-1.015625 0.140625 -1.4375 0.328125q-0.421875 0.1875 -0.65625 0.53125q-0.21875 0.34375 -0.21875 0.78125q0 0.65625 0.5 1.09375q0.5 0.4375 1.453125 0.4375q0.9375 0 1.671875 -0.40625q0.75 -0.421875 1.09375 -1.140625q0.265625 -0.5625 0.265625 -1.640625l0 -0.609375zm3.5476074 1.96875l1.625 -0.25q0.125 0.96875 0.75 1.5q0.625 0.515625 1.75 0.515625q1.125 0 1.671875 -0.453125q0.546875 -0.46875 0.546875 -1.09375q0 -0.546875 -0.484375 -0.875q-0.328125 -0.21875 -1.671875 -0.546875q-1.8125 -0.46875 -2.515625 -0.796875q-0.6875 -0.328125 -1.046875 -0.90625q-0.359375 -0.59375 -0.359375 -1.3125q0 -0.640625 0.296875 -1.1875q0.296875 -0.5625 0.8125 -0.921875q0.375 -0.28125 1.03125 -0.46875q0.671875 -0.203125 1.421875 -0.203125q1.140625 0 2.0 0.328125q0.859375 0.328125 1.265625 0.890625q0.421875 0.5625 0.578125 1.5l-1.609375 0.21875q-0.109375 -0.75 -0.640625 -1.171875q-0.515625 -0.421875 -1.46875 -0.421875q-1.140625 0 -1.625 0.375q-0.46875 0.375 -0.46875 0.875q0 0.3125 0.1875 0.578125q0.203125 0.265625 0.640625 0.4375q0.234375 0.09375 1.4375 0.421875q1.75 0.453125 2.4375 0.75q0.6875 0.296875 1.078125 0.859375q0.390625 0.5625 0.390625 1.40625q0 0.828125 -0.484375 1.546875q-0.46875 0.71875 -1.375 1.125q-0.90625 0.390625 -2.046875 0.390625q-1.875 0 -2.875 -0.78125q-0.984375 -0.78125 -1.25 -2.328125zm16.609375 -0.21875l1.6875 0.203125q-0.40625 1.484375 -1.484375 2.3125q-1.078125 0.8125 -2.765625 0.8125q-2.125 0 -3.375 -1.296875q-1.234375 -1.3125 -1.234375 -3.671875q0 -2.453125 1.25 -3.796875q1.265625 -1.34375 3.265625 -1.34375q1.9375 0 3.15625 1.328125q1.234375 1.3125 1.234375 3.703125q0 0.15625 0 0.4375l-7.21875 0q0.09375 1.59375 0.90625 2.453125q0.8125 0.84375 2.015625 0.84375q0.90625 0 1.546875 -0.46875q0.640625 -0.484375 1.015625 -1.515625zm-5.390625 -2.65625l5.40625 0q-0.109375 -1.21875 -0.625 -1.828125q-0.78125 -0.953125 -2.03125 -0.953125q-1.125 0 -1.90625 0.765625q-0.765625 0.75 -0.84375 2.015625z" fill-rule="nonzero"/><path fill="#93c47d" d="m126.36483 82.76903l144.50394 0l0 137.03937l-144.50394 0z" fill-rule="evenodd"/><path stroke="#000000" stroke-width="1.0" stroke-linejoin="round" stroke-linecap="butt" d="m126.36483 82.76903l144.50394 0l0 137.03937l-144.50394 0z" fill-rule="evenodd"/><path fill="#000000" d="m189.12518 144.84933l1.765625 0l0 7.71875q0 2.015625 -0.453125 3.203125q-0.453125 1.1875 -1.640625 1.9375q-1.1875 0.734375 -3.125 0.734375q-1.875 0 -3.078125 -0.640625q-1.1875 -0.65625 -1.703125 -1.875q-0.5 -1.234375 -0.5 -3.359375l0 -7.71875l1.765625 0l0 7.71875q0 1.734375 0.3125 2.5625q0.328125 0.8125 1.109375 1.265625q0.796875 0.453125 1.9375 0.453125q1.953125 0 2.78125 -0.890625q0.828125 -0.890625 0.828125 -3.390625l0 -7.71875zm3.8479462 10.46875l1.625 -0.25q0.125 0.96875 0.75 1.5q0.625 0.515625 1.75 0.515625q1.125 0 1.671875 -0.453125q0.546875 -0.46875 0.546875 -1.09375q0 -0.546875 -0.484375 -0.875q-0.328125 -0.21875 -1.671875 -0.546875q-1.8125 -0.46875 -2.515625 -0.796875q-0.6875 -0.328125 -1.046875 -0.90625q-0.359375 -0.59375 -0.359375 -1.3125q0 -0.640625 0.296875 -1.1875q0.296875 -0.5625 0.8125 -0.921875q0.375 -0.28125 1.03125 -0.46875q0.671875 -0.203125 1.421875 -0.203125q1.140625 0 2.0 0.328125q0.859375 0.328125 1.265625 0.890625q0.421875 0.5625 0.578125 1.5l-1.609375 0.21875q-0.109375 -0.75 -0.640625 -1.171875q-0.515625 -0.421875 -1.46875 -0.421875q-1.140625 0 -1.625 0.375q-0.46875 0.375 -0.46875 0.875q0 0.3125 0.1875 0.578125q0.203125 0.265625 0.640625 0.4375q0.234375 0.09375 1.4375 0.421875q1.75 0.453125 2.4375 0.75q0.6875 0.296875 1.078125 0.859375q0.390625 0.5625 0.390625 1.40625q0 0.828125 -0.484375 1.546875q-0.46875 0.71875 -1.375 1.125q-0.90625 0.390625 -2.046875 0.390625q-1.875 0 -2.875 -0.78125q-0.984375 -0.78125 -1.25 -2.328125zm16.609375 -0.21875l1.6875 0.203125q-0.40625 1.484375 -1.484375 2.3125q-1.078125 0.8125 -2.765625 0.8125q-2.125 0 -3.375 -1.296875q-1.234375 -1.3125 -1.234375 -3.671875q0 -2.453125 1.25 -3.796875q1.265625 -1.34375 3.265625 -1.34375q1.9375 0 3.15625 1.328125q1.234375 1.3125 1.234375 3.703125q0 0.15625 0 0.4375l-7.21875 0q0.09375 1.59375 0.90625 2.453125q0.8125 0.84375 2.015625 0.84375q0.90625 0 1.546875 -0.46875q0.640625 -0.484375 1.015625 -1.515625zm-5.390625 -2.65625l5.40625 0q-0.109375 -1.21875 -0.625 -1.828125q-0.78125 -0.953125 -2.03125 -0.953125q-1.125 0 -1.90625 0.765625q-0.765625 0.75 -0.84375 2.015625zm9.125717 5.765625l0 -9.671875l1.46875 0l0 1.46875q0.5625 -1.03125 1.03125 -1.359375q0.484375 -0.328125 1.0625 -0.328125q0.828125 0 1.6875 0.53125l-0.5625 1.515625q-0.609375 -0.359375 -1.203125 -0.359375q-0.546875 0 -0.96875 0.328125q-0.421875 0.328125 -0.609375 0.890625q-0.28125 0.875 -0.28125 1.921875l0 5.0625l-1.625 0z" fill-rule="nonzero"/><path fill="#000000" fill-opacity="0.0" d="m480.0 194.89502l0 140.75589" fill-rule="evenodd"/><path stroke="#000000" stroke-width="1.0" stroke-linejoin="round" stroke-linecap="butt" d="m480.0 194.89502l0 134.75589" fill-rule="evenodd"/><path fill="#000000" stroke="#000000" stroke-width="1.0" stroke-linecap="butt" d="m478.34827 329.6509l1.6517334 4.5381165l1.6517334 -4.5381165z" fill-rule="evenodd"/><path fill="#000000" fill-opacity="0.0" d="m382.22046 379.2467l-85.82675 0" fill-rule="evenodd"/><path stroke="#000000" stroke-width="1.0" stroke-linejoin="round" stroke-linecap="butt" d="m382.22046 379.2467l-79.82675 0" fill-rule="evenodd"/><path fill="#000000" stroke="#000000" stroke-width="1.0" stroke-linecap="butt" d="m302.3937 377.595l-4.5381165 1.6517029l4.5381165 1.6517334z" fill-rule="evenodd"/><path fill="#cfe2f3" d="m663.6037 350.17615l0 0c0 -8.027863 6.5078125 -14.535736 14.535706 -14.535736l166.48761 0c3.8551025 0 7.552307 1.5314331 10.27832 4.257416c2.7259521 2.7259827 4.2573853 6.423218 4.2573853 10.27832l0 58.141144c0 8.027863 -6.5078735 14.535736 -14.535706 14.535736l-166.48761 0c-8.027893 0 -14.535706 -6.5078735 -14.535706 -14.535736z" fill-rule="evenodd"/><path stroke="#000000" stroke-width="1.0" stroke-linejoin="round" stroke-linecap="butt" d="m663.6037 350.17615l0 0c0 -8.027863 6.5078125 -14.535736 14.535706 -14.535736l166.48761 0c3.8551025 0 7.552307 1.5314331 10.27832 4.257416c2.7259521 2.7259827 4.2573853 6.423218 4.2573853 10.27832l0 58.141144c0 8.027863 -6.5078735 14.535736 -14.535706 14.535736l-166.48761 0c-8.027893 0 -14.535706 -6.5078735 -14.535706 -14.535736z" fill-rule="evenodd"/><path fill="#000000" d="m737.36743 386.16672l0 -13.359375l2.65625 0l3.15625 9.453125q0.4375 1.328125 0.640625 1.984375q0.234375 -0.734375 0.703125 -2.140625l3.203125 -9.296875l2.375 0l0 13.359375l-1.703125 0l0 -11.171875l-3.875 11.171875l-1.59375 0l-3.859375 -11.375l0 11.375l-1.703125 0zm14.7752075 -4.84375q0 -2.6875 1.484375 -3.96875q1.25 -1.078125 3.046875 -1.078125q2.0 0 3.265625 1.3125q1.265625 1.296875 1.265625 3.609375q0 1.859375 -0.5625 2.9375q-0.5625 1.0625 -1.640625 1.65625q-1.0625 0.59375 -2.328125 0.59375q-2.03125 0 -3.28125 -1.296875q-1.25 -1.3125 -1.25 -3.765625zm1.6875 0q0 1.859375 0.796875 2.796875q0.8125 0.921875 2.046875 0.921875q1.21875 0 2.03125 -0.921875q0.8125 -0.9375 0.8125 -2.84375q0 -1.796875 -0.8125 -2.71875q-0.8125 -0.921875 -2.03125 -0.921875q-1.234375 0 -2.046875 0.921875q-0.796875 0.90625 -0.796875 2.765625zm15.563171 4.84375l0 -1.21875q-0.90625 1.4375 -2.703125 1.4375q-1.15625 0 -2.125 -0.640625q-0.96875 -0.640625 -1.5 -1.78125q-0.53125 -1.140625 -0.53125 -2.625q0 -1.453125 0.484375 -2.625q0.484375 -1.1875 1.4375 -1.8125q0.96875 -0.625 2.171875 -0.625q0.875 0 1.546875 0.375q0.6875 0.359375 1.109375 0.953125l0 -4.796875l1.640625 0l0 13.359375l-1.53125 0zm-5.171875 -4.828125q0 1.859375 0.78125 2.78125q0.78125 0.921875 1.84375 0.921875q1.078125 0 1.828125 -0.875q0.75 -0.890625 0.75 -2.6875q0 -1.984375 -0.765625 -2.90625q-0.765625 -0.9375 -1.890625 -0.9375q-1.078125 0 -1.8125 0.890625q-0.734375 0.890625 -0.734375 2.8125zm15.906982 1.71875l1.6875 0.203125q-0.40625 1.484375 -1.484375 2.3125q-1.078125 0.8125 -2.765625 0.8125q-2.125 0 -3.375 -1.296875q-1.234375 -1.3125 -1.234375 -3.671875q0 -2.453125 1.25 -3.796875q1.265625 -1.34375 3.265625 -1.34375q1.9375 0 3.15625 1.328125q1.234375 1.3125 1.234375 3.703125q0 0.15625 0 0.4375l-7.21875 0q0.09375 1.59375 0.90625 2.453125q0.8125 0.84375 2.015625 0.84375q0.90625 0 1.546875 -0.46875q0.640625 -0.484375 1.015625 -1.515625zm-5.390625 -2.65625l5.40625 0q-0.109375 -1.21875 -0.625 -1.828125q-0.78125 -0.953125 -2.03125 -0.953125q-1.125 0 -1.90625 0.765625q-0.765625 0.75 -0.84375 2.015625zm9.094482 5.765625l0 -13.359375l1.640625 0l0 13.359375l-1.640625 0z" fill-rule="nonzero"/><path fill="#000000" fill-opacity="0.0" d="m577.77954 379.2467l85.82678 0" fill-rule="evenodd"/><path stroke="#000000" stroke-width="1.0" stroke-linejoin="round" stroke-linecap="butt" d="m583.77954 379.2467l73.82678 0" fill-rule="evenodd"/><path fill="#000000" stroke="#000000" stroke-width="1.0" stroke-linecap="butt" d="m583.77954 377.595l-4.538086 1.6517029l4.538086 1.6517334z" fill-rule="evenodd"/><path fill="#000000" stroke="#000000" stroke-width="1.0" stroke-linecap="butt" d="m657.6063 380.89844l4.538086 -1.6517334l-4.538086 -1.6517029z" fill-rule="evenodd"/><path fill="#000000" fill-opacity="0.0" d="m198.61679 335.6404l0 -115.842514" fill-rule="evenodd"/><path stroke="#000000" stroke-width="1.0" stroke-linejoin="round" stroke-linecap="butt" d="m198.61679 335.6404l0 -109.842514" fill-rule="evenodd"/><path fill="#000000" stroke="#000000" stroke-width="1.0" stroke-linecap="butt" d="m200.26852 225.7979l-1.6517334 -4.538101l-1.6517181 4.538101z" fill-rule="evenodd"/><path fill="#000000" fill-opacity="0.0" d="m270.86877 151.28871l111.33856 0" fill-rule="evenodd"/><path stroke="#000000" stroke-width="1.0" stroke-linejoin="round" stroke-linecap="butt" d="m270.86877 151.28871l105.33856 0" fill-rule="evenodd"/><path fill="#000000" stroke="#000000" stroke-width="1.0" stroke-linecap="butt" d="m376.20734 152.94044l4.5381165 -1.6517334l-4.5381165 -1.6517334z" fill-rule="evenodd"/><path fill="#000000" fill-opacity="0.0" d="m761.3832 422.85303l0 103.212585" fill-rule="evenodd"/><path stroke="#000000" stroke-width="1.0" stroke-linejoin="round" stroke-linecap="butt" d="m761.3832 428.85303l0 91.212585" fill-rule="evenodd"/><path fill="#000000" stroke="#000000" stroke-width="1.0" stroke-linecap="butt" d="m763.0349 428.85303l-1.6517334 -4.5381165l-1.6517334 4.5381165z" fill-rule="evenodd"/><path fill="#000000" stroke="#000000" stroke-width="1.0" stroke-linecap="butt" d="m759.73145 520.0656l1.6517334 4.538086l1.6517334 -4.538086z" fill-rule="evenodd"/><path fill="#000000" fill-opacity="0.0" d="m663.6037 123.00525l195.55902 0l0 56.566925l-195.55902 0z" fill-rule="evenodd"/><path fill="#000000" d="m699.9474 161.44525l-4.8125 0l-1.921875 -4.984375l-8.765625 0l-1.8125 4.984375l-4.703125 0l8.546875 -21.9375l4.6875 0l8.78125 21.9375zm-8.15625 -8.6875l-3.015625 -8.140625l-2.96875 8.140625l5.984375 0zm10.357666 -7.203125l3.921875 0l0 2.328125q0.765625 -1.203125 2.0625 -1.9375q1.3125 -0.75 2.890625 -0.75q2.765625 0 4.703125 2.171875q1.9375 2.15625 1.9375 6.046875q0 3.96875 -1.953125 6.1875q-1.9375 2.203125 -4.71875 2.203125q-1.3125 0 -2.390625 -0.515625q-1.0625 -0.53125 -2.25 -1.796875l0 8.0l-4.203125 0l0 -21.9375zm4.15625 7.671875q0 2.6875 1.0625 3.96875q1.078125 1.265625 2.59375 1.265625q1.46875 0 2.4375 -1.171875q0.984375 -1.171875 0.984375 -3.859375q0 -2.5 -1.015625 -3.703125q-1.0 -1.21875 -2.484375 -1.21875q-1.53125 0 -2.5625 1.203125q-1.015625 1.1875 -1.015625 3.515625zm14.569824 -7.671875l3.921875 0l0 2.328125q0.765625 -1.203125 2.0625 -1.9375q1.3125 -0.75 2.890625 -0.75q2.765625 0 4.703125 2.171875q1.9375 2.15625 1.9375 6.046875q0 3.96875 -1.953125 6.1875q-1.9375 2.203125 -4.71875 2.203125q-1.3125 0 -2.390625 -0.515625q-1.0625 -0.53125 -2.25 -1.796875l0 8.0l-4.203125 0l0 -21.9375zm4.15625 7.671875q0 2.6875 1.0625 3.96875q1.078125 1.265625 2.59375 1.265625q1.46875 0 2.4375 -1.171875q0.984375 -1.171875 0.984375 -3.859375q0 -2.5 -1.015625 -3.703125q-1.0 -1.21875 -2.484375 -1.21875q-1.53125 0 -2.5625 1.203125q-1.015625 1.1875 -1.015625 3.515625zm14.694824 8.21875l0 -21.9375l4.203125 0l0 21.9375l-4.203125 0zm8.517273 -18.046875l0 -3.890625l4.203125 0l0 3.890625l-4.203125 0zm0 18.046875l0 -15.890625l4.203125 0l0 15.890625l-4.203125 0zm22.376648 -11.203125l-4.140625 0.75q-0.21875 -1.234375 -0.96875 -1.859375q-0.734375 -0.640625 -1.90625 -0.640625q-1.578125 0 -2.515625 1.09375q-0.9375 1.078125 -0.9375 3.625q0 2.828125 0.953125 4.0q0.953125 1.171875 2.546875 1.171875q1.203125 0 1.96875 -0.6875q0.765625 -0.6875 1.078125 -2.34375l4.125 0.703125q-0.640625 2.84375 -2.46875 4.296875q-1.828125 1.453125 -4.890625 1.453125q-3.484375 0 -5.5625 -2.203125q-2.078125 -2.203125 -2.078125 -6.09375q0 -3.9375 2.078125 -6.125q2.09375 -2.1875 5.640625 -2.1875q2.90625 0 4.609375 1.25q1.71875 1.25 2.46875 3.796875zm6.3308105 0.15625l-3.8125 -0.6875q0.640625 -2.3125 2.203125 -3.40625q1.578125 -1.109375 4.671875 -1.109375q2.828125 0 4.203125 0.671875q1.375 0.65625 1.9375 1.6875q0.5625 1.015625 0.5625 3.75l-0.046875 4.921875q0 2.09375 0.203125 3.09375q0.203125 0.984375 0.75 2.125l-4.15625 0q-0.171875 -0.421875 -0.40625 -1.25q-0.109375 -0.359375 -0.15625 -0.484375q-1.078125 1.046875 -2.3125 1.578125q-1.21875 0.515625 -2.609375 0.515625q-2.453125 0 -3.875 -1.328125q-1.40625 -1.34375 -1.40625 -3.375q0 -1.34375 0.640625 -2.390625q0.640625 -1.0625 1.796875 -1.625q1.171875 -0.5625 3.359375 -0.984375q2.9375 -0.546875 4.078125 -1.03125l0 -0.421875q0 -1.203125 -0.59375 -1.71875q-0.59375 -0.515625 -2.265625 -0.515625q-1.125 0 -1.75 0.4375q-0.625 0.4375 -1.015625 1.546875zm5.625 3.40625q-0.8125 0.28125 -2.5625 0.65625q-1.75 0.375 -2.28125 0.734375q-0.828125 0.578125 -0.828125 1.46875q0 0.890625 0.65625 1.53125q0.65625 0.640625 1.6875 0.640625q1.125 0 2.15625 -0.75q0.765625 -0.5625 1.015625 -1.390625q0.15625 -0.53125 0.15625 -2.046875l0 -0.84375zm15.565186 -8.25l0 3.34375l-2.875 0l0 6.40625q0 1.953125 0.078125 2.28125q0.09375 0.3125 0.375 0.53125q0.296875 0.203125 0.71875 0.203125q0.59375 0 1.6875 -0.40625l0.359375 3.265625q-1.453125 0.625 -3.3125 0.625q-1.140625 0 -2.0625 -0.375q-0.90625 -0.390625 -1.34375 -0.984375q-0.421875 -0.609375 -0.578125 -1.65625q-0.140625 -0.734375 -0.140625 -2.953125l0 -6.9375l-1.921875 0l0 -3.34375l1.921875 0l0 -3.171875l4.21875 -2.453125l0 5.625l2.875 0zm2.9274902 -2.15625l0 -3.890625l4.203125 0l0 3.890625l-4.203125 0zm0 18.046875l0 -15.890625l4.203125 0l0 15.890625l-4.203125 0zm7.548584 -8.171875q0 -2.09375 1.03125 -4.046875q1.03125 -1.96875 2.921875 -3.0q1.890625 -1.03125 4.234375 -1.03125q3.59375 0 5.90625 2.34375q2.3125 2.328125 2.3125 5.90625q0 3.609375 -2.328125 5.984375q-2.328125 2.375 -5.859375 2.375q-2.1875 0 -4.171875 -0.984375q-1.984375 -0.984375 -3.015625 -2.890625q-1.03125 -1.921875 -1.03125 -4.65625zm4.296875 0.21875q0 2.375 1.125 3.640625q1.125 1.25 2.78125 1.25q1.640625 0 2.75 -1.25q1.125 -1.265625 1.125 -3.671875q0 -2.328125 -1.125 -3.578125q-1.109375 -1.265625 -2.75 -1.265625q-1.65625 0 -2.78125 1.265625q-1.125 1.25 -1.125 3.609375zm29.851013 7.953125l-4.203125 0l0 -8.109375q0 -2.578125 -0.265625 -3.328125q-0.265625 -0.765625 -0.875 -1.171875q-0.609375 -0.421875 -1.46875 -0.421875q-1.09375 0 -1.96875 0.59375q-0.859375 0.59375 -1.1875 1.59375q-0.3125 0.984375 -0.3125 3.640625l0 7.203125l-4.203125 0l0 -15.890625l3.90625 0l0 2.328125q2.078125 -2.6875 5.234375 -2.6875q1.390625 0 2.546875 0.5q1.15625 0.5 1.75 1.28125q0.59375 0.765625 0.8125 1.765625q0.234375 0.984375 0.234375 2.828125l0 9.875z" fill-rule="nonzero"/></g></svg>